<?xml version="1.0" encoding="UTF-8"?>
<svg width="13px" height="17px" viewBox="0 0 13 17" version="1.1" xmlns="http://www.w3.org/2000/svg" xmlns:xlink="http://www.w3.org/1999/xlink">
    <!-- Generator: Sketch 48.2 (47327) - http://www.bohemiancoding.com/sketch -->
    <title>arrow_down_touch_</title>
    <desc>Created with Sketch.</desc>
    <defs></defs>
    <g id="Styleguide" stroke="none" stroke-width="1" fill="none" fill-rule="evenodd" transform="translate(-469.000000, -731.000000)">
        <g id="UI_icons" transform="translate(150.000000, 527.000000)">
            <g id="Icons" transform="translate(0.000000, 87.000000)">
                <g id="arrow_down_touch_" transform="translate(300.000000, 100.000000)">
                    <rect id="bg" fill="#FFFFFF" opacity="0" x="0" y="0" width="50" height="50"></rect>
                    <path d="M26.0179777,24.3221664 C26.0179777,24.3221664 25.490693,25 25.0310462,25 C24.5903089,25 24.0426601,24.3221664 24.0426601,24.3221664 L24.0332053,24.3119844 L19.2607332,18.9314984 C18.9130889,18.4907612 18.9130889,17.7700175 19.2607332,17.3300075 C19.6091048,16.8899975 20.1792995,16.8899975 20.5269438,17.3300075 L25.0303189,21.8348372 L29.5329667,17.3300075 C29.8820655,16.8899975 30.4508057,16.8899975 30.7999045,17.3300075 C31.1475488,17.7700175 31.1475488,18.4907612 30.7999045,18.9314984 L26.0274324,24.3119844 L26.0179777,24.3221664 L26.0179777,24.3221664 Z M26.0179777,33.3221664 C26.0179777,33.3221664 25.490693,34 25.0310462,34 C24.5903089,34 24.0426601,33.3221664 24.0426601,33.3221664 L24.0332053,33.3119844 L19.2607332,27.9314984 C18.9130889,27.4907612 18.9130889,26.7700175 19.2607332,26.3300075 C19.6091048,25.8899975 20.1792995,25.8899975 20.5269438,26.3300075 L25.0303189,30.8348372 L29.5329667,26.3300075 C29.8820655,25.8899975 30.4508057,25.8899975 30.7999045,26.3300075 C31.1475488,26.7700175 31.1475488,27.4907612 30.7999045,27.9314984 L26.0274324,33.3119844 L26.0179777,33.3221664 L26.0179777,33.3221664 Z" fill="#FD5454"></path>
                </g>
            </g>
        </g>
    </g>
</svg>